<svg width="108" height="71" viewBox="0 0 108 71" fill="none" xmlns="http://www.w3.org/2000/svg">
  <g filter="url(#filter0_d_57_4728)">
  <path d="M52.7909 12.7061H40.9902V24.757H52.7909V12.7061Z" fill="#FFDD00"/>
  <path d="M58.6302 0H10.8081H4V6.95257V55.7891V62.7417H10.8081H36.0429V55.7891H10.8081V6.95257H58.6302V30.7152L65.4384 37.7729V6.95257V0H58.6302Z" fill="#FFDD00"/>
  <path d="M19.7769 41.8281H23.4703C25.9612 41.8281 27.1338 43.0869 27.1338 45.346C27.1338 47.6052 25.9183 48.923 23.3095 48.923H21.8283V52.6663H19.7769V41.8281ZM21.8283 43.4612V47.2724H23.1145C24.4778 47.2724 25.0437 46.5084 25.0437 45.3416C25.0437 44.1748 24.4864 43.4568 23.2988 43.4568L21.8283 43.4612Z" fill="white"/>
  <path d="M34.0816 47.9664H29.8909V52.6663H27.8223V41.8281H29.8909V46.2304H34.0816V41.8281H36.1481V52.6663H34.0816V47.9664Z" fill="white"/>
  <path d="M37.1792 47.2457C37.1792 44.1482 38.251 41.5891 41.8266 41.5891C45.52 41.5891 46.4718 44.1482 46.4718 47.2457C46.4718 50.3433 45.4 52.9045 41.8266 52.9045C38.1417 52.9045 37.1792 50.3367 37.1792 47.2457ZM44.3325 47.2457C44.3325 44.8071 43.5994 43.371 41.8266 43.371C40.0538 43.371 39.3185 44.8071 39.3185 47.2457C39.3185 49.6844 40.0517 51.1226 41.8266 51.1226C43.6015 51.1226 44.341 49.68 44.341 47.2457H44.3325ZM40.9027 39.0454H42.7526L44.3046 41.1097H42.8405L41.8287 40.0327L40.8234 41.1097H39.3571L40.9027 39.0454ZM44.9134 37.8589H47.1556L45.2778 39.9232H43.8244L44.9134 37.8589Z" fill="white"/>
  <path d="M50.1738 41.8281H53.7644C56.1224 41.8281 57.2521 42.8614 57.2521 44.6871C57.2521 45.8254 56.8126 46.5588 56.0516 47.0075C56.5771 47.2223 57.0243 47.5984 57.3314 48.0839C57.6386 48.5693 57.7906 49.1402 57.7665 49.7176C57.7665 51.4689 56.6947 52.6663 54.1009 52.6663H50.1738V41.8281ZM52.2553 43.5203V46.3661H53.5157C54.7033 46.3661 55.1277 45.8123 55.1277 44.8688C55.1277 44.061 54.6733 43.5225 53.6272 43.5225L52.2553 43.5203ZM52.2553 47.951V50.9939H54.0581C55.1856 50.9939 55.6401 50.4247 55.6401 49.5425C55.6401 48.6143 55.1556 47.9554 53.8823 47.9554L52.2553 47.951Z" fill="white"/>
  <path d="M58.7461 41.8274H65.4449V43.5633H60.8147V46.2428H64.7997V47.9787H60.8147V50.9274H65.5049V52.6656H58.7461V41.8274ZM61.2091 38.7451H63.0419L64.596 41.1093H63.1298L62.118 39.8813L61.1212 41.1093H59.655L61.2091 38.7451Z" fill="white"/>
  <path d="M79.7124 46.4218H80.6213V41.8247H84.3748C88.0682 41.8247 89.2387 44.1452 89.2387 47.2427C89.2387 50.3403 87.9525 52.6629 84.3748 52.6629H80.6213V48.2191H79.7124V46.4218ZM82.6877 43.5629V46.4218H84.7263V48.2191H82.6877V50.927H84.2998C86.0747 50.927 87.0993 49.7602 87.0993 47.2449C87.0993 44.7296 86.0747 43.5629 84.2998 43.5629H82.6877Z" fill="white"/>
  <path d="M89.7812 47.2457C89.7812 44.1482 90.8531 41.5891 94.4286 41.5891C98.1221 41.5891 99.0739 44.1482 99.0739 47.2457C99.0739 50.3433 98.002 52.9045 94.4286 52.9045C90.7352 52.9045 89.7812 50.3367 89.7812 47.2457ZM96.9345 47.2457C96.9345 44.8071 96.2014 43.371 94.4286 43.371C92.6558 43.371 91.9206 44.8071 91.9206 47.2457C91.9206 49.6844 92.6537 51.1226 94.4286 51.1226C96.2035 51.1226 96.9345 49.68 96.9345 47.2457ZM93.5047 39.0454H95.3375L96.8895 41.1097H95.4254L94.4136 40.0327L93.4168 41.1097H91.9506L93.5047 39.0454ZM98.5315 39.921H97.0803L95.2046 37.8589H97.4468L98.5315 39.921Z" fill="white"/>
  <path d="M99.4985 41.8281H104V43.505H102.774V50.9939H103.989V52.6707H99.4878V50.9939H100.705V43.505H99.4878L99.4985 41.8281Z" fill="white"/>
  <path d="M84.8321 46.4243H79.8203V48.2216H84.8321V46.4243Z" fill="white"/>
  <path d="M75.1216 41.8281H73.143V46.4537L68.6136 41.8281H66.5171V52.6663H68.4957V46.4099C68.4957 46.0487 68.4378 45.4051 68.3649 44.7615L73.1366 49.6344V52.6663H75.1216V41.8281Z" fill="white"/>
  <path d="M41.9358 55.8398H43.3249L45.7236 62.637H44.3345L43.8587 61.1725H41.3292L40.8597 62.637H39.5371L41.9358 55.8398ZM41.6807 60.102H43.5092L42.9133 58.2435C42.7809 57.8414 42.6764 57.4303 42.6003 57.0132C42.5243 57.4303 42.4198 57.8414 42.2874 58.2435L41.6807 60.102Z" fill="white"/>
  <path d="M46.3237 57.8216H47.5092L47.5542 58.4214C47.6773 58.1996 47.855 58.0144 48.0696 57.8843C48.2843 57.7541 48.5286 57.6835 48.7782 57.6793C48.9089 57.6779 49.039 57.6971 49.164 57.7362V58.9665C48.9657 58.9165 48.7616 58.8944 48.5574 58.9008C48.3779 58.8959 48.1993 58.9275 48.0319 58.9936C47.8645 59.0598 47.7116 59.1592 47.582 59.2861V62.6376H46.3237V57.8216Z" fill="white"/>
  <path d="M49.397 57.8211H50.1344V56.3281H51.3927V57.8211H52.9382V58.8916H51.3927V60.9559C51.3927 61.444 51.5127 61.6608 52.1001 61.6608C52.3752 61.6616 52.6497 61.6329 52.9189 61.5754V62.5802C52.5536 62.7157 52.1672 62.7825 51.7785 62.7772C50.4731 62.7772 50.1344 62.1205 50.1344 61.0412V58.8916H49.397V57.8211Z" fill="white"/>
  <path d="M55.3999 60.2422C55.3999 58.6004 56.1437 57.6788 57.5971 57.6788C58.0712 57.6705 58.5423 57.7567 58.984 57.9327V58.9835C58.5996 58.8514 58.1956 58.7884 57.79 58.7974C57.0355 58.7974 56.6861 59.3884 56.6861 60.205C56.6861 61.0215 57.0462 61.6695 57.7986 61.6695C58.2142 61.6794 58.6283 61.6157 59.0226 61.4812V62.5057C58.5397 62.6995 58.0236 62.7918 57.5049 62.7772C56.1523 62.7772 55.3999 61.7921 55.3999 60.2422Z" fill="white"/>
  <path d="M59.4731 60.2333C59.4731 58.7404 60.1805 57.6699 61.8311 57.6699C63.5225 57.6699 64.1891 58.7404 64.1891 60.2224C64.1891 61.7044 63.4817 62.7858 61.8311 62.7858C60.1355 62.7858 59.4731 61.7197 59.4731 60.2333ZM62.8837 60.2333C62.8837 59.3993 62.6178 58.7229 61.8268 58.7229C61.0358 58.7229 60.77 59.4081 60.77 60.2443C60.77 61.0805 61.0358 61.7548 61.8268 61.7548C62.6178 61.7548 62.8837 61.063 62.8837 60.2224V60.2333Z" fill="white"/>
  <path d="M65.0825 57.8206H66.1758L66.2765 58.2146C66.6766 57.8411 67.2055 57.645 67.747 57.6695C68.9432 57.6695 69.4491 58.3919 69.4491 59.4821V62.6366H68.1886V59.6507C68.1886 59.0596 67.8949 58.786 67.3312 58.786C66.9856 58.7779 66.6448 58.8689 66.3473 59.0487V62.6366H65.089L65.0825 57.8206Z" fill="white"/>
  <path d="M70.6196 57.8206H71.715L71.8158 58.2146C72.2158 57.8411 72.7447 57.645 73.2863 57.6695C74.4803 57.6695 74.9862 58.3919 74.9862 59.4821V62.6366H73.7279V59.6507C73.7279 59.0596 73.4342 58.786 72.8704 58.786C72.5248 58.7776 72.1839 58.8686 71.8865 59.0487V62.6366H70.6196V57.8206Z" fill="white"/>
  <path d="M75.7642 60.2509C75.7642 58.852 76.3344 57.6699 77.9078 57.6699C79.5155 57.6699 80.0514 58.9002 80.0514 60.148C80.0518 60.2988 80.0425 60.4494 80.0235 60.5989H77.0268C77.0739 61.2557 77.4126 61.6694 78.2508 61.6694C78.7693 61.6744 79.285 61.5915 79.777 61.4242V62.44C79.2516 62.6818 78.6788 62.7971 78.1029 62.7771C76.5594 62.7771 75.7642 61.8008 75.7642 60.2509ZM77.031 59.6883H78.7781C78.7331 59.06 78.448 58.6747 77.8971 58.6747C77.3462 58.6747 77.0825 59.06 77.0353 59.6883H77.031Z" fill="white"/>
  <path d="M80.54 60.2421C80.54 58.6003 81.2839 57.6787 82.7373 57.6787C83.2113 57.6711 83.6823 57.7573 84.1242 57.9326V58.9834C83.7389 58.8515 83.3343 58.7885 82.928 58.7973C82.1735 58.7973 81.8241 59.3884 81.8241 60.2049C81.8241 61.0214 82.1842 61.6694 82.9366 61.6694C83.3522 61.6793 83.7663 61.6156 84.1606 61.4811V62.5056C83.6777 62.6994 83.1616 62.7917 82.6429 62.7771C81.2839 62.7771 80.54 61.792 80.54 60.2421Z" fill="white"/>
  <path d="M84.4312 57.8211H85.1664V56.3281H86.4247V57.8211H87.9703V58.8916H86.4247V60.9559C86.4247 61.444 86.5448 61.6608 87.1343 61.6608C87.4087 61.6614 87.6824 61.6328 87.951 61.5754V62.5802C87.5856 62.7157 87.1992 62.7825 86.8106 62.7772C85.5051 62.7772 85.1664 62.1205 85.1664 61.0412V58.8916H84.4312V57.8211Z" fill="white"/>
  <path d="M88.3667 62.4658V61.4347C88.8624 61.6181 89.385 61.7143 89.9122 61.7193C90.4739 61.7193 90.804 61.5989 90.804 61.2815C90.804 60.9641 90.5382 60.859 89.8844 60.6992C88.8469 60.4453 88.4139 60.0315 88.4139 59.1668C88.4139 58.3021 89.0034 57.6826 90.3988 57.6826C90.9519 57.6826 91.6143 57.814 91.8801 58.0022V59.0355C91.4074 58.8487 90.9057 58.7501 90.3988 58.7443C89.9958 58.7443 89.7107 58.8669 89.7107 59.1668C89.7107 59.4667 89.9766 59.5696 90.6196 59.7294C91.6507 59.9834 92.1009 60.3862 92.1009 61.2618C92.1009 62.1374 91.3742 62.7832 89.9959 62.7832C89.3592 62.7766 88.6518 62.6365 88.3667 62.4658Z" fill="white"/>
  <path d="M98.0387 62.2515C97.8534 62.4295 97.6355 62.5684 97.3974 62.6601C97.1594 62.7517 96.906 62.7944 96.6517 62.7857C95.4556 62.7857 94.9497 62.0633 94.9497 60.9731V57.8208H96.2102V60.8045C96.2102 61.3978 96.5038 61.6802 97.0676 61.6802C97.3849 61.6822 97.6966 61.5943 97.9679 61.4262V57.8208H99.2284V62.6368H98.133L98.0387 62.2515Z" fill="white"/>
  <path d="M100.182 62.466V61.435C100.678 61.6165 101.201 61.7112 101.728 61.7152C102.287 61.7152 102.619 61.5948 102.619 61.2773C102.619 60.9599 102.345 60.8439 101.702 60.6928C100.662 60.4389 100.231 60.0252 100.231 59.1605C100.231 58.2958 100.819 57.6763 102.216 57.6763C102.767 57.6763 103.43 57.8076 103.696 57.9959V59.0291C103.224 58.8423 102.723 58.7437 102.216 58.738C101.811 58.738 101.526 58.8606 101.526 59.1605C101.526 59.4604 101.794 59.5633 102.437 59.7231C103.466 59.977 103.916 60.3798 103.916 61.2554C103.916 62.1311 103.19 62.7769 101.811 62.7769C101.175 62.7769 100.467 62.6368 100.182 62.466Z" fill="white"/>
  </g>
  <defs>
  <filter id="filter0_d_57_4728" x="0" y="0" width="108" height="70.7866" filterUnits="userSpaceOnUse" color-interpolation-filters="sRGB">
  <feFlood flood-opacity="0" result="BackgroundImageFix"/>
  <feColorMatrix in="SourceAlpha" type="matrix" values="0 0 0 0 0 0 0 0 0 0 0 0 0 0 0 0 0 0 127 0" result="hardAlpha"/>
  <feOffset dy="4"/>
  <feGaussianBlur stdDeviation="2"/>
  <feComposite in2="hardAlpha" operator="out"/>
  <feColorMatrix type="matrix" values="0 0 0 0 0 0 0 0 0 0 0 0 0 0 0 0 0 0 0.25 0"/>
  <feBlend mode="normal" in2="BackgroundImageFix" result="effect1_dropShadow_57_4728"/>
  <feBlend mode="normal" in="SourceGraphic" in2="effect1_dropShadow_57_4728" result="shape"/>
  </filter>
  </defs>
  </svg>