<svg width="200" height="200" viewBox="0 0 200 200" fill="none" xmlns="http://www.w3.org/2000/svg">
<rect width="200" height="200" fill="#191919"/>
<g clip-path="url(#clip0_2139_7079)">
<path d="M26.9986 94.4833C26.9078 94.0976 26.9078 93.6962 26.9986 93.3104C27.0844 92.8453 27.3459 92.4302 27.7295 92.1499C28.1132 91.8697 28.5901 91.7454 29.063 91.8024C29.341 91.7776 29.6211 91.8129 29.8841 91.9057C30.1471 91.9986 30.3867 92.1469 30.5866 92.3403C30.7864 92.5338 30.9417 92.7679 31.0418 93.0266C31.1419 93.2852 31.1844 93.5624 31.1664 93.8389V95.2309H36.8014V93.6455C36.8014 88.7605 32.3739 88 29.1799 88C25.1679 88 21.883 89.2889 21.2857 92.9753C21.0846 93.9751 21.0846 95.0045 21.2857 96.0043C22.2595 100.58 30.2965 101.908 31.452 104.808C31.6125 105.351 31.6125 105.928 31.452 106.47C31.2703 107.218 30.7509 107.966 29.2448 107.966C28.9578 108.001 28.6665 107.974 28.3906 107.888C28.1147 107.802 27.8606 107.658 27.6453 107.467C27.4301 107.275 27.2587 107.04 27.1426 106.777C27.0266 106.514 26.9686 106.229 26.9726 105.942V103.828H20.9092V105.568C20.9092 110.556 24.8822 112.013 29.128 112.013C33.3737 112.013 36.5677 110.634 37.1 106.857C37.312 105.642 37.312 104.399 37.1 103.184C36.2171 98.5177 27.6478 97.1128 26.9986 94.4833ZM100.448 94.5478C100.363 94.1613 100.363 93.7613 100.448 93.3749C100.531 92.9151 100.789 92.5046 101.168 92.2286C101.548 91.9526 102.02 91.8323 102.486 91.8926C102.761 91.8675 103.037 91.902 103.296 91.9937C103.555 92.0853 103.791 92.2319 103.988 92.4232C104.184 92.6146 104.336 92.8461 104.434 93.1017C104.531 93.3573 104.571 93.6308 104.551 93.9033V95.2696H110.095V93.71C110.095 88.8765 105.706 88.1289 102.551 88.1289C98.5783 88.1289 95.3194 89.4178 94.7611 93.0526C94.5674 94.0401 94.5674 95.0555 94.7611 96.043C95.7349 100.58 103.681 101.895 104.824 104.769C104.978 105.304 104.978 105.871 104.824 106.406C104.714 106.88 104.429 107.296 104.025 107.571C103.621 107.845 103.127 107.959 102.642 107.888C102.358 107.926 102.069 107.901 101.796 107.817C101.522 107.733 101.27 107.592 101.057 107.402C100.843 107.212 100.674 106.979 100.56 106.718C100.446 106.457 100.39 106.175 100.396 105.89V103.738H94.5144V105.439C94.5144 110.402 98.4096 111.884 102.629 111.884C106.849 111.884 110.004 110.505 110.536 106.806C110.742 105.603 110.742 104.374 110.536 103.171C109.589 98.5306 101.097 97.1515 100.461 94.5478H100.448ZM151.734 106.754L146.411 88.7089H138.036V110.892H143.593L143.282 92.2277L149.046 110.892H157.083V88.7089H151.5L151.734 106.754ZM45.1759 88.7089L40.9951 111.124H47.0975L50.2396 90.3716L53.3168 111.124H59.4581L55.3033 88.7089H45.1759ZM79.2974 88.7089L76.4409 106.226L73.5975 88.7089H64.379L63.8856 111.124H69.5336L69.6894 90.3716L73.5845 111.124H79.3233L83.2185 90.3716L83.3613 111.124H89.0093L88.5159 88.7089H79.2974ZM126.039 105.298C126.067 105.58 126.067 105.865 126.039 106.148C125.902 106.614 125.617 107.022 125.226 107.313C124.835 107.604 124.359 107.761 123.871 107.761C123.382 107.761 122.907 107.604 122.516 107.313C122.125 107.022 121.84 106.614 121.703 106.148C121.675 105.865 121.675 105.58 121.703 105.298V88.7089H115.99V104.782C115.99 105.194 115.99 106.071 115.99 106.264C116.379 110.44 119.716 111.794 123.871 111.794C128.026 111.794 131.349 110.44 131.752 106.264C131.752 106.045 131.817 105.194 131.752 104.782V88.7089H126.039V105.298ZM170.963 98.5435V101.817H173.274V105.117C173.301 105.4 173.301 105.685 173.274 105.968C173.107 106.442 172.796 106.854 172.383 107.145C171.97 107.436 171.476 107.592 170.97 107.592C170.463 107.592 169.969 107.436 169.556 107.145C169.143 106.854 168.832 106.442 168.665 105.968C168.638 105.685 168.638 105.4 168.665 105.117V94.8056C168.663 94.4475 168.689 94.0898 168.743 93.7358C168.855 93.2378 169.146 92.7977 169.562 92.4985C169.979 92.1993 170.491 92.0617 171.002 92.1117C171.515 92.0529 172.032 92.187 172.45 92.4877C172.868 92.7883 173.157 93.2336 173.261 93.7358C173.283 94.0232 173.283 94.3119 173.261 94.5993V95.8883H178.909V95.1407C178.94 94.6514 178.94 94.1606 178.909 93.6713C178.507 89.4694 175.014 88.1418 171.002 88.1418C166.99 88.1418 163.575 89.4307 163.069 93.6713C163.069 94.0451 162.978 94.7411 162.978 95.1407V104.576C162.978 105.001 162.978 105.31 163.069 106.058C163.445 110.131 166.964 111.588 171.002 111.588C175.04 111.588 178.572 110.131 178.948 106.058C179.013 105.31 179.026 105.001 179.026 104.576V98.5435H170.963Z" fill="#F7F3EE"/>
</g>
<defs>
<clipPath id="clip0_2139_7079">
<rect width="158" height="24" fill="white" transform="translate(21 88)"/>
</clipPath>
</defs>
</svg>
