<svg width="86" height="86" viewBox="0 0 86 86" fill="none" xmlns="http://www.w3.org/2000/svg">
<rect width="86" height="86" rx="43" fill="#FFDD00"/>
<path d="M24.495 49V38.64H27.855C28.6857 38.64 29.409 38.7893 30.025 39.088C30.641 39.3773 31.1543 39.7693 31.565 40.264C31.9757 40.7587 32.2837 41.314 32.489 41.93C32.6943 42.546 32.797 43.176 32.797 43.82C32.797 44.464 32.6943 45.094 32.489 45.71C32.2837 46.326 31.9757 46.8813 31.565 47.376C31.1543 47.8707 30.641 48.2673 30.025 48.566C29.409 48.8553 28.6857 49 27.855 49H24.495ZM27.799 39.844H25.867V47.796H27.799C28.4057 47.796 28.933 47.684 29.381 47.46C29.8383 47.236 30.2163 46.9373 30.515 46.564C30.823 46.1813 31.0517 45.752 31.201 45.276C31.3503 44.8 31.425 44.3147 31.425 43.82C31.425 43.3253 31.3503 42.84 31.201 42.364C31.0517 41.888 30.823 41.4633 30.515 41.09C30.2163 40.7073 29.8383 40.404 29.381 40.18C28.933 39.956 28.4057 39.844 27.799 39.844ZM34.6805 49V38.64H38.3485C39.0859 38.64 39.6972 38.7847 40.1825 39.074C40.6679 39.3633 41.0319 39.7367 41.2745 40.194C41.5172 40.6513 41.6385 41.132 41.6385 41.636C41.6385 42.056 41.5545 42.462 41.3865 42.854C41.2185 43.246 40.9665 43.5913 40.6305 43.89C40.3039 44.1793 39.8885 44.3893 39.3845 44.52L42.0025 49H40.4485L37.9425 44.646H36.0525V49H34.6805ZM38.3345 39.844H36.0525V43.47H38.3345C38.7639 43.47 39.1185 43.3813 39.3985 43.204C39.6785 43.0267 39.8885 42.8027 40.0285 42.532C40.1685 42.252 40.2385 41.9627 40.2385 41.664C40.2385 41.356 40.1685 41.0667 40.0285 40.796C39.8885 40.516 39.6785 40.2873 39.3985 40.11C39.1185 39.9327 38.7639 39.844 38.3345 39.844ZM43.5421 49L47.1961 38.64H48.9181L52.5861 49H51.1301L50.2621 46.522H45.8661L44.9981 49H43.5421ZM46.2861 45.29H49.8421L48.0641 40.208L46.2861 45.29ZM58.4002 49.14C57.5602 49.14 56.8275 48.9907 56.2022 48.692C55.5768 48.3933 55.0588 47.992 54.6482 47.488C54.2375 46.9747 53.9295 46.4053 53.7242 45.78C53.5282 45.1453 53.4302 44.4967 53.4302 43.834C53.4302 43.1713 53.5282 42.5227 53.7242 41.888C53.9295 41.2533 54.2375 40.684 54.6482 40.18C55.0682 39.6667 55.5908 39.2607 56.2162 38.962C56.8508 38.654 57.5928 38.5 58.4422 38.5C59.0955 38.5 59.6555 38.584 60.1222 38.752C60.5982 38.92 60.9948 39.1347 61.3122 39.396C61.6295 39.6573 61.8862 39.9373 62.0822 40.236C62.2782 40.5253 62.4275 40.8007 62.5302 41.062C62.6328 41.3233 62.6982 41.538 62.7262 41.706C62.7635 41.874 62.7822 41.958 62.7822 41.958H61.3962C61.3962 41.958 61.3775 41.8833 61.3402 41.734C61.3028 41.5847 61.2282 41.4027 61.1162 41.188C61.0042 40.964 60.8362 40.7447 60.6122 40.53C60.3975 40.306 60.1128 40.1193 59.7582 39.97C59.4128 39.8207 58.9788 39.746 58.4562 39.746C57.8402 39.746 57.3035 39.8627 56.8462 40.096C56.3888 40.3293 56.0108 40.642 55.7122 41.034C55.4135 41.4167 55.1895 41.8507 55.0402 42.336C54.8908 42.812 54.8162 43.302 54.8162 43.806C54.8162 44.3193 54.8908 44.8233 55.0402 45.318C55.1895 45.8033 55.4135 46.242 55.7122 46.634C56.0202 47.0167 56.3982 47.3247 56.8462 47.558C57.2942 47.782 57.8122 47.894 58.4002 47.894C59.3615 47.894 60.1222 47.614 60.6822 47.054C61.2515 46.4847 61.5595 45.7193 61.6062 44.758H58.5262V43.624H62.9222V44.338C62.9222 45.402 62.7168 46.2887 62.3062 46.998C61.9048 47.7073 61.3635 48.244 60.6822 48.608C60.0008 48.9627 59.2402 49.14 58.4002 49.14Z" fill="#191919"/>
</svg>
